<svg xmlns="http://www.w3.org/2000/svg" viewBox="0 0 128 128" role="img" aria-label="Cat avatar">
  <rect width="128" height="128" rx="64" fill="#fff7fb"/>
  <path d="M33 48 42 26l16 15c4-1 8-2 12-2s8 1 12 2l16-15 9 22c6 8 9 18 9 29 0 24-20 39-46 39S24 101 24 77c0-11 3-21 9-29Z" fill="#ec4899"/>
  <path d="M42 32 48 47l-12-6 6-9Zm56 0-6 15 12-6-6-9Z" fill="#831843"/>
  <circle cx="52" cy="70" r="5" fill="#111827"/>
  <circle cx="76" cy="70" r="5" fill="#111827"/>
  <path d="M59 82h10l-5 6-5-6Z" fill="#111827"/>
  <path d="M64 88c-3 7-10 9-17 5m17-5c3 7 10 9 17 5" fill="none" stroke="#111827" stroke-width="4" stroke-linecap="round"/>
  <path d="M29 75h17m-19 12h18m54-12H82m20 12H83" stroke="#831843" stroke-width="4" stroke-linecap="round"/>
</svg>
