<svg xmlns="http://www.w3.org/2000/svg" viewBox="0 0 128 128" role="img" aria-label="Deer avatar">
  <rect width="128" height="128" rx="64" fill="#ffffff"/>
  <path d="M44 49c6-9 14-14 20-14s14 5 20 14c7 11 8 28 4 42-4 15-13 24-24 24s-20-9-24-24c-4-14-3-31 4-42Z" fill="#111111"/>
  <path d="M51 44 39 30M39 30l-13 2m13-2 2-14M77 44l12-14m0 0 13 2m-13-2-2-14" fill="none" stroke="#374151" stroke-width="6" stroke-linecap="round"/>
  <path d="M50 91c4 11 9 17 14 17s10-6 14-17L64 99 50 91Z" fill="#f8fafc"/>
  <circle cx="54" cy="70" r="5" fill="#1f2937"/>
  <circle cx="74" cy="70" r="5" fill="#1f2937"/>
  <path d="M59 82h10l-5 7-5-7Z" fill="#1f2937"/>
  <circle cx="47" cy="58" r="4" fill="#f8fafc"/>
  <circle cx="81" cy="58" r="4" fill="#f8fafc"/>
</svg>
