<svg xmlns="http://www.w3.org/2000/svg" viewBox="0 0 128 128" role="img" aria-label="Fox avatar">
  <rect width="128" height="128" rx="64" fill="#ffffff"/>
  <path d="M24 39 48 57 64 34l16 23 24-18-14 45c-5 17-15 28-26 28S43 101 38 84L24 39Z" fill="#111111"/>
  <path d="M48 57 64 34l16 23-16 12-16-12Z" fill="#4b5563"/>
  <path d="M39 76c4 19 13 31 25 31s21-12 25-31L64 92 39 76Z" fill="#f8fafc"/>
  <circle cx="50" cy="70" r="5" fill="#111111"/>
  <circle cx="78" cy="70" r="5" fill="#111111"/>
  <path d="M58 84h12l-6 7-6-7Z" fill="#111111"/>
  <path d="M29 43 45 55 37 63 29 43Zm70 0L83 55l8 8 8-20Z" fill="#374151"/>
</svg>
