<svg xmlns="http://www.w3.org/2000/svg" viewBox="0 0 128 128" role="img" aria-label="Owl avatar">
  <rect width="128" height="128" rx="64" fill="#ffffff"/>
  <path d="M31 43c8-14 25-15 33-4 8-11 25-10 33 4 8 15 3 54-33 69-36-15-41-54-33-69Z" fill="#111111"/>
  <path d="M43 58c0-10 8-18 18-18 3 0 6 1 8 2-6 4-10 10-10 18 0 6 3 12 7 15-2 1-4 1-6 1-9 0-17-8-17-18Zm25 2c0-8 4-14 10-18 2-1 5-2 8-2 10 0 18 8 18 18s-8 18-18 18c-2 0-4 0-6-1 4-3 7-9 7-15 0-5-2-10-5-13-4 3-7 8-7 13s3 10 7 13c-5 5-13 5-18 0 3-3 4-8 4-13Z" fill="#f8fafc"/>
  <circle cx="56" cy="59" r="5" fill="#111827"/>
  <circle cx="82" cy="59" r="5" fill="#111827"/>
  <path d="M64 74h10l-5 8-5-8Z" fill="#111111"/>
  <path d="M46 33 32 26l6 17 8-10Zm36 0 14-7-6 17-8-10Z" fill="#374151"/>
</svg>
