<svg xmlns="http://www.w3.org/2000/svg" viewBox="0 0 128 128" role="img" aria-label="Raven avatar">
  <rect width="128" height="128" rx="64" fill="#ffffff"/>
  <path d="M30 70c5-24 20-39 39-39 21 0 35 18 35 40 0 27-19 44-43 44-19 0-33-14-31-45Z" fill="#111111"/>
  <path d="M50 39c7-9 19-14 34-8 11 5 18 15 20 29-12-11-26-16-42-13-5 1-9-1-12-8Z" fill="#111827"/>
  <path d="M81 59 116 70 82 79c4-7 4-13-1-20Z" fill="#f8fafc"/>
  <circle cx="72" cy="56" r="5" fill="#f8fafc"/>
  <circle cx="73" cy="56" r="2.5" fill="#020617"/>
  <path d="M40 79c7 18 20 27 39 25-11 9-28 11-40 3-9-6-13-16-9-28h10Z" fill="#374151"/>
</svg>
